<svg width="45" height="45" viewBox="0 0 45 45" fill="none" xmlns="http://www.w3.org/2000/svg">
<g clip-path="url(#clip0_866_99)">
<path d="M45.0211 22.5141C45.0211 34.9495 34.9418 45.0281 22.507 45.0281C10.073 45.0281 -0.00701904 34.9523 -0.00701904 22.5141C-0.00701904 10.0814 10.0709 0 22.507 0C34.9383 0 45.0211 10.0779 45.0211 22.5141Z" fill="#1E75BB"/>
<path d="M10.7149 29.0181C6.72609 20.4603 6.54679 11.2501 10.1545 3.63525C4.04156 7.65854 0.00140381 14.5738 0.00140381 22.4396C0.00140381 34.8744 10.0779 44.9537 22.5155 44.9537C22.7377 44.9537 22.9549 44.9263 23.1743 44.9207C18.0134 40.5774 13.6645 35.3511 10.7177 29.0237" fill="#186DA3"/>
<path d="M35.4164 31.4306C35.2715 32.6266 34.1071 32.8017 33.5397 33.5751C33.7816 34.9308 32.5715 37.1259 33.9426 37.3305C35.2441 37.526 35.4853 33.3972 35.6857 31.6985C35.5078 31.6957 35.5633 31.4622 35.4164 31.4292" fill="#00A650"/>
<path d="M33.4645 2.76396C32.7101 3.33982 31.3699 2.53967 30.6063 2.41943C29.8202 2.7492 29.122 3.17037 28.1904 3.35811C28.0399 3.74834 28.2206 4.32771 28.3261 4.83186C29.1769 5.3599 30.3447 5.13561 31.5429 5.10045C31.2904 6.44975 31.3622 7.69709 30.3363 8.05076C29.0749 8.48459 27.4029 7.30686 26.0486 7.24709C25.4573 7.37365 25.612 8.24061 24.9722 8.31865C23.9217 7.67107 22.5815 7.31389 21.7568 6.44131C22.0057 6.09115 21.9459 5.16092 21.6218 4.96615C19.3415 4.84732 17.3313 6.22896 15.5883 5.77123C15.371 6.53975 14.7094 6.85896 14.2481 7.38068C14.4703 9.5435 12.0262 10.0856 11.565 11.8047C11.2507 12.9762 11.8736 14.4619 11.2978 15.8273C12.7111 17.0838 12.7884 19.8541 14.9182 20.1185C16.3476 20.2957 17.5345 19.5279 19.2058 19.3134C19.8485 19.8197 20.0236 20.4398 21.2189 20.1185C21.8376 20.8462 20.9686 22.7229 21.4882 23.471C22.4669 24.8843 23.2024 25.8729 22.9619 27.6272C22.8614 28.3605 22.2497 29.0158 22.2919 29.7738C22.3221 30.3511 22.8101 30.8538 22.9619 31.3812C23.4738 33.1797 23.6538 35.3327 24.7029 36.8803C24.8027 37.2888 24.4751 37.274 24.5693 37.684C25.3399 38.2795 27.7207 37.89 28.459 37.4154C29.9728 36.4493 29.7035 34.0326 31.1393 33.1249C31.3615 32.4506 31.0282 31.9036 31.0085 31.1154C31.4894 30.344 32.3655 29.97 33.018 29.3716C33.5812 27.45 32.4956 26.1829 32.6179 24.2754C34.1641 21.7561 36.6827 20.2078 37.4421 16.9003C36.6022 17.1193 35.7523 17.2981 34.8954 17.4361C33.7549 16.2548 32.8901 14.7944 31.9479 13.4142C32.1665 11.2978 30.0994 10.1025 30.4713 8.72084C30.7469 8.75881 30.5936 9.22146 30.8714 9.25662C31.4437 8.09506 31.8199 10.499 32.0787 11.0004C32.1813 11.1979 32.6208 11.3013 32.7501 11.5362C32.9238 11.8561 32.7733 12.2618 32.8844 12.6084C33.1544 13.4641 34.0741 13.8424 34.2246 14.7544C34.3526 15.532 34.1634 15.8484 34.4946 16.2288C37.0118 15.2627 39.6562 14.4218 40.5281 11.8047C39.8327 11.5608 39.4362 11.0194 39.0508 10.4639C38.7288 10.9905 38.2366 11.3449 37.4414 11.4019C37.1411 10.2712 36.3762 9.60959 36.1012 8.45154C37.286 7.91928 37.4498 9.4999 38.2479 9.7924H39.4551C39.7582 10.5244 40.713 10.6073 41.7515 10.6059C39.7083 7.33709 36.8613 4.62021 33.4645 2.76396" fill="#00A650"/>
<path d="M17.4656 1.48088C17.1935 1.51955 17.2005 1.84369 16.9277 1.88236C16.0882 1.96955 15.2191 1.49705 14.5125 1.88236C14.5962 2.8576 14.4127 3.56705 14.3817 4.42979C15.319 5.41135 16.7702 5.19338 17.7321 4.2976C17.6541 3.86166 17.8235 3.67182 17.8657 3.35822C18.8234 3.24361 18.9499 2.29369 19.473 1.74877C20.3372 1.89502 20.6325 1.47385 21.2189 1.34658C22.095 2.48354 23.7262 2.86041 24.1685 4.42979C24.3464 3.87572 24.2578 3.18244 24.8386 3.35822C23.8957 2.86252 21.9333 1.57229 22.9619 0.407207C24.2606 1.36064 25.233 3.24783 26.3433 4.11408C26.3573 4.08104 26.3904 4.0501 26.4487 4.0276C27.2046 4.49729 26.0838 4.50291 26.1816 5.09986C26.6196 5.04854 26.7694 4.70752 27.1188 4.56338C27.1434 4.00158 26.4593 4.14924 26.5802 3.49182C27.0738 3.08822 28.0723 3.19229 28.5905 2.82104C28.5332 2.49411 28.5409 2.15912 28.6132 1.83518C28.6855 1.51125 28.8209 1.20473 29.0116 0.933145C26.9568 0.326759 24.8259 0.0172991 22.6835 0.0141602C20.873 0.0141602 19.1257 0.25041 17.4403 0.652598C17.4973 0.881113 17.5169 1.1476 17.4684 1.48088" fill="#00A650"/>
</g>
<defs>
<clipPath id="clip0_866_99">
<rect width="45" height="45" fill="white"/>
</clipPath>
</defs>
</svg>
